<svg version="1.1" id="Layer_1" xmlns="http://www.w3.org/2000/svg" xmlns:xlink="http://www.w3.org/1999/xlink" x="0px" y="0px"
	 width="100%" viewBox="0 0 512 512" enable-background="new 0 0 512 512" xml:space="preserve">
<path fill="#FFCA3A" opacity="1.000000" stroke="none" 
	d="
M432.998810,132.166855 
	C442.311340,132.075439 451.459900,131.672073 460.696716,134.737595 
	C475.143768,139.532288 484.752441,149.285004 491.937164,161.929611 
	C501.583679,178.906799 505.268890,197.819946 509.006805,216.683594 
	C510.065186,222.024460 511.220673,227.346085 512.665771,232.338272 
	C513.000000,248.354233 513.000000,264.708466 513.000000,281.531372 
	C512.334961,282.622528 511.155823,283.188477 511.080170,283.875885 
	C509.312500,299.935913 504.281555,315.122406 497.866058,329.759644 
	C493.685181,339.298492 488.915070,348.857483 482.753174,357.181824 
	C474.361542,368.518311 462.060547,374.120270 447.875885,374.957184 
	C443.241272,375.230591 438.576263,374.988556 433.462372,374.449646 
	C432.999359,293.333618 432.999084,212.750244 432.998810,132.166855 
z"/>
<path fill="#3678AE" opacity="1.000000" stroke="none" 
	d="
M55.954906,372.110779 
	C43.698395,369.135651 34.715130,361.401855 27.004274,351.952179 
	C14.344936,336.438141 10.200438,317.510742 6.033624,298.642487 
	C4.429909,291.380493 3.211212,284.033478 1.408544,276.862610 
	C1.000000,261.645782 1.000000,246.291550 0.999997,230.468658 
	C1.664782,228.874619 2.743844,227.814178 2.931981,226.614090 
	C5.591186,209.651489 8.093976,192.572128 15.161602,176.794495 
	C24.651844,155.608658 41.012432,141.833557 63.618839,135.575012 
	C63.674076,145.039551 63.270424,153.995163 63.051773,162.955276 
	C62.901546,169.111435 63.029518,175.274002 62.996700,181.433517 
	C62.668690,242.998306 62.355076,304.563202 61.915070,366.127197 
	C61.898392,368.460663 60.637985,370.785248 59.957146,373.113953 
	C59.520741,373.064575 59.084339,373.015198 58.259892,372.646057 
	C57.232868,372.254425 56.593887,372.182587 55.954906,372.110779 
z"/>
<path fill="#FFD249" opacity="1.000000" stroke="none" 
	d="
M332.996460,491.831757 
	C315.755951,497.950928 298.169342,502.606140 279.856262,503.978546 
	C269.723389,504.737915 259.569641,505.219055 249.202682,504.985901 
	C248.986404,423.153107 248.992767,342.159943 248.999130,261.166809 
	C269.023102,261.117920 289.047058,261.069031 309.451599,261.492432 
	C309.554779,264.429199 309.039520,266.893341 309.035797,269.358246 
	C308.982666,304.516602 308.998657,339.675049 308.997986,374.833496 
	C291.867462,374.833496 274.736938,374.833496 257.304749,374.833496 
	C257.304749,379.979309 257.304749,384.708344 257.304749,390.021790 
	C282.223999,390.021790 307.147003,390.021790 332.534058,390.553101 
	C332.998291,401.062714 332.998505,411.041016 332.583923,421.023071 
	C331.348236,420.906738 330.525299,420.799042 329.706787,420.664673 
	C318.578583,418.838043 307.731842,425.281952 304.141693,435.856140 
	C300.599701,446.288605 305.216492,457.610596 315.115204,463.003265 
	C320.831299,466.117340 326.829620,466.210327 333.000488,465.485413 
	C332.998749,474.579224 332.997620,483.205475 332.996460,491.831757 
z"/>
<path fill="#366E9C" opacity="1.000000" stroke="none" 
	d="
M253.996750,132.163864 
	C258.409607,129.302536 255.051453,124.997101 255.852844,121.447090 
	C256.068451,120.491920 254.564377,119.148544 253.510376,117.543541 
	C253.780807,114.410141 254.912231,111.718330 254.921341,109.022736 
	C255.039398,74.069977 254.997955,39.116676 254.996750,4.163514 
	C275.855286,4.057676 296.593933,5.482310 317.581787,9.556067 
	C317.665222,16.543941 317.075470,23.008745 317.039825,29.476604 
	C316.642212,101.595222 316.330200,173.714325 315.995087,245.833282 
	C295.305481,245.877945 274.615875,245.922623 253.462646,245.474045 
	C253.332870,236.187439 253.917511,227.395142 253.954529,218.600525 
	C254.075836,189.788757 253.998032,160.976151 253.996750,132.163864 
z"/>
<path fill="#3676AA" opacity="1.000000" stroke="none" 
	d="
M60.194969,373.438965 
	C60.637985,370.785248 61.898392,368.460663 61.915070,366.127197 
	C62.355076,304.563202 62.668690,242.998306 62.996700,181.433517 
	C63.029518,175.274002 62.901546,169.111435 63.051773,162.955276 
	C63.270424,153.995163 63.674076,145.039551 63.998264,135.624359 
	C69.402985,134.110641 74.786293,132.303421 80.217850,132.144440 
	C94.489120,131.726700 108.781395,132.026596 123.531288,132.561203 
	C123.665329,170.604385 123.307213,208.126770 123.016388,245.649673 
	C122.921089,257.945709 122.874840,270.245300 123.093742,282.538147 
	C123.144775,285.404236 124.368248,288.249390 125.052277,291.104187 
	C119.864044,302.601929 118.484543,314.660767 118.892059,327.196442 
	C119.345955,341.158722 118.996040,355.147186 118.996025,369.124237 
	C118.996025,370.907013 118.996025,372.689758 118.996025,375.583893 
	C99.106201,374.965790 79.769493,374.364868 60.194969,373.438965 
z"/>
<path fill="#FFD752" opacity="1.000000" stroke="none" 
	d="
M197.961639,497.092834 
	C178.062622,492.628448 160.053635,484.343445 145.995056,469.276855 
	C137.729996,460.419159 133.064392,449.473145 133.033569,437.101257 
	C132.936859,398.276825 132.976746,359.451965 133.008011,320.627319 
	C133.021317,304.098816 139.737030,289.952545 151.117798,278.790497 
	C163.562714,266.584778 178.964752,259.707306 197.539551,261.551575 
	C197.986572,340.419647 197.974106,418.756256 197.961639,497.092834 
z"/>
<path fill="#366B98" opacity="1.000000" stroke="none" 
	d="
M316.456787,245.898529 
	C316.330200,173.714325 316.642212,101.595222 317.039825,29.476604 
	C317.075470,23.008745 317.665222,16.543941 317.996368,9.622219 
	C333.264465,11.325500 346.770020,17.296501 358.737427,27.131187 
	C369.599243,36.057285 376.269196,47.327927 379.390411,60.862843 
	C379.792847,62.608147 379.968262,64.443939 379.969604,66.238014 
	C380.001007,107.673065 380.180542,149.109482 379.881561,190.542404 
	C379.789948,203.242142 374.681091,214.380325 366.427643,224.133179 
	C356.822235,235.483551 344.789124,242.586777 330.252472,245.261246 
	C325.911652,246.059891 321.368805,245.760254 316.456787,245.898529 
z"/>
<path fill="#FFCD3F" opacity="1.000000" stroke="none" 
	d="
M432.535248,132.093842 
	C432.999084,212.750244 432.999359,293.333618 432.999207,374.375061 
	C412.307739,374.882935 391.616699,374.932770 370.462585,374.449829 
	C369.999664,332.839539 369.995880,291.762024 370.008087,250.684509 
	C370.008972,247.665344 370.325745,244.565475 366.887268,242.956573 
	C372.283203,236.774948 378.374054,231.061157 382.920502,224.307648 
	C390.731598,212.704697 394.957611,199.638824 394.990204,185.463730 
	C395.030731,167.833588 394.999878,150.203278 394.999878,132.020828 
	C407.545929,132.020828 419.808807,132.020828 432.535248,132.093842 
z"/>
<path fill="#FFD44D" opacity="1.000000" stroke="none" 
	d="
M198.157257,497.435272 
	C197.974106,418.756256 197.986572,340.419647 197.998566,261.625000 
	C214.689423,261.117950 231.380737,261.068939 248.535599,261.093384 
	C248.992767,342.159943 248.986404,423.153107 248.970139,504.620636 
	C231.696228,505.386993 215.020111,501.613007 198.157257,497.435272 
z"/>
<path fill="#3673A5" opacity="1.000000" stroke="none" 
	d="
M125.354790,290.921936 
	C124.368248,288.249390 123.144775,285.404236 123.093742,282.538147 
	C122.874840,270.245300 122.921089,257.945709 123.016388,245.649673 
	C123.307213,208.126770 123.665329,170.604385 123.995789,132.624207 
	C148.351105,132.125092 172.707901,132.083588 197.524353,132.520477 
	C197.656738,135.454132 197.068970,137.906464 197.041443,140.365067 
	C196.647888,175.520721 196.329987,210.677200 195.993835,245.833496 
	C189.709442,246.852264 183.294876,247.373672 177.163742,248.978058 
	C153.761429,255.101959 136.495255,269.011047 125.354790,290.921936 
z"/>
<path fill="#FFD044" opacity="1.000000" stroke="none" 
	d="
M366.568695,243.091400 
	C370.325745,244.565475 370.008972,247.665344 370.008087,250.684509 
	C369.995880,291.762024 369.999664,332.839539 369.999146,374.375092 
	C349.974182,374.883087 329.949615,374.933075 309.461517,374.908264 
	C308.998657,339.675049 308.982666,304.516602 309.035797,269.358246 
	C309.039520,266.893341 309.554779,264.429199 309.915039,261.565613 
	C330.703308,261.315277 349.805817,256.438141 366.568695,243.091400 
z"/>
<path fill="#3670A0" opacity="1.000000" stroke="none" 
	d="
M254.534912,4.101502 
	C254.997955,39.116676 255.039398,74.069977 254.921341,109.022736 
	C254.912231,111.718330 253.780807,114.410141 253.084900,117.470139 
	C230.640152,117.881287 208.281570,117.925995 185.376770,117.504929 
	C184.554230,106.991219 184.277893,96.943306 184.438507,86.848900 
	C198.343018,87.044998 208.256287,79.375031 210.178116,67.677841 
	C212.273209,54.925964 202.670975,40.125362 184.064545,40.825657 
	C184.031998,34.856686 184.016220,29.375593 184.006790,23.894489 
	C183.999496,19.650433 184.000198,15.406363 183.997345,11.162298 
	C207.082077,6.093855 230.525955,4.558716 254.534912,4.101502 
z"/>
<path fill="#3670A0" opacity="1.000000" stroke="none" 
	d="
M196.458725,245.900482 
	C196.329987,210.677200 196.647888,175.520721 197.041443,140.365067 
	C197.068970,137.906464 197.656738,135.454132 197.988892,132.582794 
	C216.351547,132.124298 234.709305,132.081924 253.531906,132.101700 
	C253.998032,160.976151 254.075836,189.788757 253.954529,218.600525 
	C253.917511,227.395142 253.332870,236.187439 252.997864,245.408554 
	C234.305695,245.880020 215.614655,245.923737 196.458725,245.900482 
z"/>
<path fill="#3673A5" opacity="1.000000" stroke="none" 
	d="
M183.624496,11.243822 
	C184.000198,15.406363 183.999496,19.650433 184.006790,23.894489 
	C184.016220,29.375593 184.031998,34.856686 183.761322,41.016212 
	C169.343552,44.947159 161.405136,57.214020 165.203720,70.293472 
	C167.933945,79.694260 174.942337,84.522064 184.001572,86.895386 
	C184.277893,96.943306 184.554230,106.991219 184.911926,117.438187 
	C167.883530,117.837234 150.773773,117.837234 133.317749,117.837234 
	C133.200699,116.199181 133.010284,114.760620 133.008469,113.321831 
	C132.987503,96.677925 132.519272,80.016151 133.142334,63.395580 
	C133.660599,49.570007 136.783752,36.192596 148.027481,26.641605 
	C157.620087,18.493168 169.351578,14.731594 181.424194,11.972442 
	C182.049957,11.829428 182.643250,11.544307 183.624496,11.243822 
z"/>
<path fill="#FFD044" opacity="1.000000" stroke="none" 
	d="
M332.998718,421.019318 
	C332.998505,411.041016 332.998291,401.062714 332.997406,390.626465 
	C348.464539,390.168518 363.932312,390.168518 379.997559,390.168518 
	C379.997559,392.025604 379.997589,393.791412 379.997559,395.557190 
	C379.997528,410.053619 380.171417,424.552673 379.950165,439.045715 
	C379.712708,454.598633 372.899078,467.135284 360.388763,475.999329 
	C351.991272,481.949249 342.643707,486.558289 333.358856,491.799530 
	C332.997620,483.205475 332.998749,474.579224 333.279572,465.274994 
	C340.589355,461.916687 345.628052,457.219696 348.006683,449.987671 
	C351.914520,438.106079 346.528534,427.784424 332.998718,421.019318 
z"/>
<path fill="#3676AA" opacity="1.000000" stroke="none" 
	d="
M56.098038,372.381104 
	C56.593887,372.182587 57.232868,372.254425 57.936939,372.579895 
	C57.415077,372.772827 56.828125,372.712097 56.098038,372.381104 
z"/>
<path fill="#FFFEFD" opacity="1.000000" stroke="none" 
	d="
M332.583923,421.023071 
	C346.528534,427.784424 351.914520,438.106079 348.006683,449.987671 
	C345.628052,457.219696 340.589355,461.916687 333.280151,464.807465 
	C326.829620,466.210327 320.831299,466.117340 315.115204,463.003265 
	C305.216492,457.610596 300.599701,446.288605 304.141693,435.856140 
	C307.731842,425.281952 318.578583,418.838043 329.706787,420.664673 
	C330.525299,420.799042 331.348236,420.906738 332.583923,421.023071 
z"/>
<path fill="#FFFEFD" opacity="1.000000" stroke="none" 
	d="
M184.438507,86.848900 
	C174.942337,84.522064 167.933945,79.694260 165.203720,70.293472 
	C161.405136,57.214020 169.343552,44.947159 183.780823,41.504086 
	C202.670975,40.125362 212.273209,54.925964 210.178116,67.677841 
	C208.256287,79.375031 198.343018,87.044998 184.438507,86.848900 
z"/>
</svg>